<?xml version="1.0" encoding="UTF-8"?>
<!DOCTYPE svg PUBLIC "-//W3C//DTD SVG 1.1//EN" "http://www.w3.org/Graphics/SVG/1.1/DTD/svg11.dtd">
<svg xmlns="http://www.w3.org/2000/svg" version="1.1" width="591px" height="783px" style="shape-rendering:geometricPrecision; text-rendering:geometricPrecision; image-rendering:optimizeQuality; fill-rule:evenodd; clip-rule:evenodd" xmlns:xlink="http://www.w3.org/1999/xlink">
<g><path style="opacity:0.561" fill="#6c7e90" d="M 362.5,24.5 C 367.027,26.5951 371.361,28.9284 375.5,31.5C 370.341,30.4249 366.007,28.0916 362.5,24.5 Z"/></g>
<g><path style="opacity:0.718" fill="#4c5d69" d="M 167.5,65.5 C 167.631,66.2389 167.464,66.9056 167,67.5C 160.577,74.4284 153.744,80.7617 146.5,86.5C 153.167,79.1667 160.167,72.1667 167.5,65.5 Z"/></g>
<g><path style="opacity:0.6" fill="#778893" d="M 146.5,86.5 C 145.243,89.4274 143.243,91.7607 140.5,93.5C 141.757,90.5726 143.757,88.2393 146.5,86.5 Z"/></g>
<g><path style="opacity:0.624" fill="#647584" d="M 138.5,95.5 C 134.582,101.754 129.915,107.421 124.5,112.5C 128.418,106.246 133.085,100.579 138.5,95.5 Z"/></g>
<g><path style="opacity:0.998" fill="#1d3542" d="M 362.5,24.5 C 366.007,28.0916 370.341,30.4249 375.5,31.5C 387.165,38.001 398.165,45.501 408.5,54C 457.855,97.6749 496.022,149.508 523,209.5C 543.87,255.979 558.703,304.312 567.5,354.5C 567.882,359.744 568.882,364.744 570.5,369.5C 573.362,382.213 575.028,395.213 575.5,408.5C 575.785,413.897 575.451,419.23 574.5,424.5C 576.473,445.336 577.14,466.336 576.5,487.5C 571.716,592.264 526.049,673.764 439.5,732C 431.272,736.398 422.939,740.565 414.5,744.5C 411.759,744.707 409.426,745.707 407.5,747.5C 398.328,752.003 388.661,755.336 378.5,757.5C 375.572,757.565 372.905,758.232 370.5,759.5C 367.727,760.657 364.727,761.324 361.5,761.5C 357.575,761.43 353.909,762.097 350.5,763.5C 344.706,764.785 338.706,765.618 332.5,766C 308.167,766.667 283.833,766.667 259.5,766C 209.674,761.624 165.341,743.957 126.5,713C 104.523,693.695 84.6899,672.528 67,649.5C 60.3863,639.937 54.553,629.937 49.5,619.5C 47.6218,613.413 44.9552,607.746 41.5,602.5C 35.8062,591.426 31.4728,579.759 28.5,567.5C 27.4354,561.231 25.7687,555.231 23.5,549.5C 19.175,532.884 16.3417,515.884 15,498.5C 9.54276,435.699 15.0428,374.032 31.5,313.5C 33.2795,308.722 34.6128,303.722 35.5,298.5C 50.4433,239.295 74.61,184.295 108,133.5C 113.037,126.068 118.537,119.068 124.5,112.5C 129.915,107.421 134.582,101.754 138.5,95.5C 138.833,94.5 139.5,93.8333 140.5,93.5C 143.243,91.7607 145.243,89.4274 146.5,86.5C 153.744,80.7617 160.577,74.4284 167,67.5C 167.464,66.9056 167.631,66.2389 167.5,65.5C 223.457,10.572 288.457,-3.09469 362.5,24.5 Z"/></g>
<g><path style="opacity:1" fill="#35576d" d="M 309.5,18.5 C 330.494,20.6724 350.16,26.5058 368.5,36C 381.04,44.0975 393.373,52.4309 405.5,61C 420.308,75.4752 434.808,90.3085 449,105.5C 461.712,122.214 474.045,139.214 486,156.5C 534.528,240.227 562.528,330.56 570,427.5C 574.232,484.064 566.566,538.731 547,591.5C 520.761,652.748 478.594,699.915 420.5,733C 396.746,744.807 371.746,752.807 345.5,757C 310.432,760.631 275.432,760.297 240.5,756C 210.991,750.381 183.324,740.048 157.5,725C 87.2742,678.455 43.7742,613.955 27,531.5C 24.7806,515.849 22.7806,500.182 21,484.5C 17.753,375.68 41.0863,273.346 91,177.5C 116.991,129.487 151.157,87.9868 193.5,53C 211.817,39.7142 231.817,29.5476 253.5,22.5C 259.485,21.5581 265.485,20.7248 271.5,20C 284.34,19.8309 297.007,19.3309 309.5,18.5 Z"/></g>
<g><path style="opacity:0.561" fill="#6a7b8c" d="M 35.5,298.5 C 34.6128,303.722 33.2795,308.722 31.5,313.5C 31.762,308.112 33.0954,303.112 35.5,298.5 Z"/></g>
<g><path style="opacity:0.471" fill="#728797" d="M 567.5,354.5 C 569.375,359.206 570.375,364.206 570.5,369.5C 568.882,364.744 567.882,359.744 567.5,354.5 Z"/></g>
<g><path style="opacity:1" fill="#18313f" d="M 278.5,37.5 C 312.667,34.947 344,43.1137 372.5,62C 397.815,79.3099 419.982,100.143 439,124.5C 475.574,172.974 503.24,226.307 522,284.5C 538.648,334.444 548.648,385.778 552,438.5C 554.776,494.472 544.776,547.805 522,598.5C 514.285,612.498 506.285,626.164 498,639.5C 487.632,651.553 477.132,663.719 466.5,676C 411.644,725.492 346.977,747.159 272.5,741C 196.751,733.185 136.584,698.351 92,636.5C 52.5868,575.514 34.9202,508.514 39,435.5C 45.6459,331.571 76.6459,235.904 132,148.5C 150.154,120.996 171.987,96.4965 197.5,75C 221.239,55.464 248.239,42.964 278.5,37.5 Z"/></g>
<g><path style="opacity:1" fill="#76859a" d="M 538.5,375.5 C 540.011,378.544 540.678,381.878 540.5,385.5C 539.215,382.411 538.549,379.078 538.5,375.5 Z"/></g>
<g><path style="opacity:1" fill="#a7b8c8" d="M 452.5,154.5 C 456.052,157.387 458.385,161.053 459.5,165.5C 456.779,162.106 454.446,158.439 452.5,154.5 Z"/></g>
<g><path style="opacity:1" fill="#aebdcc" d="M 187.5,92.5 C 183.167,97.5 178.5,102.167 173.5,106.5C 177.167,100.833 181.833,96.1667 187.5,92.5 Z"/></g>
<g><path style="opacity:1" fill="#a3b2bf" d="M 401.5,92.5 C 407.892,97.89 413.559,103.89 418.5,110.5C 412.108,105.11 406.441,99.11 401.5,92.5 Z"/></g>
<g><path style="opacity:1" fill="#fdfdfd" d="M 401.5,92.5 C 406.441,99.11 412.108,105.11 418.5,110.5C 431.739,123.734 443.073,138.4 452.5,154.5C 454.446,158.439 456.779,162.106 459.5,165.5C 478.635,194.767 494.468,226.1 507,259.5C 517.84,288.84 526.84,318.84 534,349.5C 536.137,358.049 537.637,366.716 538.5,375.5C 538.549,379.078 539.215,382.411 540.5,385.5C 541.678,394.873 543.178,404.206 545,413.5C 545.322,427.425 546.155,441.258 547.5,455C 546.185,478.964 543.518,502.797 539.5,526.5C 538.087,529.219 537.42,532.219 537.5,535.5C 531.431,561.307 522.265,585.973 510,609.5C 506.622,616.283 502.289,622.283 497,627.5C 495.728,633.049 492.728,637.382 488,640.5C 483.943,645.558 480.276,650.892 477,656.5C 465.807,667.028 454.64,677.528 443.5,688C 436.907,692.783 430.24,697.283 423.5,701.5C 420.911,701.461 418.911,702.461 417.5,704.5C 412.85,707.829 407.85,710.662 402.5,713C 396.75,714.705 391.084,716.705 385.5,719C 377.344,723.499 368.677,726.833 359.5,729C 338.073,733.662 316.407,736.162 294.5,736.5C 280.193,736.869 266.193,735.535 252.5,732.5C 250.401,731.388 248.067,730.721 245.5,730.5C 218.43,725.863 193.097,716.363 169.5,702C 122.252,671.405 88.0854,629.905 67,577.5C 45.4176,520.83 38.7509,462.497 47,402.5C 57.16,323.024 81.4934,248.357 120,178.5C 130.676,160.476 142.342,143.143 155,126.5C 158,123.833 161,121.167 164,118.5C 165.823,113.502 168.989,109.502 173.5,106.5C 178.5,102.167 183.167,97.5 187.5,92.5C 210.366,69.2246 237.7,53.3912 269.5,45C 296.675,39.5494 322.675,42.8828 347.5,55C 367.414,64.7865 385.414,77.2865 401.5,92.5 Z"/></g>
<g><path style="opacity:1" fill="#162d54" d="M 214.5,251.5 C 218.231,256.413 222.231,261.246 226.5,266C 231.558,270.057 236.892,273.724 242.5,277C 258.921,284.641 275.921,290.808 293.5,295.5C 294.713,295.253 295.38,294.586 295.5,293.5C 306.133,292.713 316.466,290.547 326.5,287C 330.619,283.607 335.286,281.274 340.5,280C 347.778,276.201 354.778,272.034 361.5,267.5C 364.527,263.806 367.86,260.473 371.5,257.5C 372.136,255.22 373.136,253.22 374.5,251.5C 377.627,252.581 380.96,253.247 384.5,253.5C 384.082,256.765 382.915,259.765 381,262.5C 379.912,272.201 378.579,281.868 377,291.5C 375.833,293.167 374.667,294.833 373.5,296.5C 376.351,300.763 380.351,303.263 385.5,304C 391.268,305.225 396.601,304.225 401.5,301C 403.124,299.883 404.124,298.383 404.5,296.5C 400.748,285.488 398.581,274.155 398,262.5C 396.869,260.395 395.703,258.395 394.5,256.5C 414.113,258.216 429.28,267.216 440,283.5C 449.597,306.935 445.097,327.101 426.5,344C 404.553,362.303 381.887,379.636 358.5,396C 348.965,401.932 339.299,407.599 329.5,413C 314.573,419.271 299.24,420.271 283.5,416C 237.48,405.771 192.147,393.104 147.5,378C 154.403,374.13 161.569,370.963 169,368.5C 208.433,379.533 247.933,390.366 287.5,401C 295.627,402.35 303.294,401.017 310.5,397C 314.649,393.756 313.983,391.756 308.5,391C 260.129,378.824 211.796,366.491 163.5,354C 158.962,352.287 157.462,349.12 159,344.5C 160.497,342.323 162.497,340.99 165,340.5C 216.802,354.16 268.635,367.493 320.5,380.5C 321.442,380.392 322.275,380.059 323,379.5C 325.456,374.117 325.956,368.617 324.5,363C 270.556,349.12 216.556,335.454 162.5,322C 158.293,318.93 157.46,315.097 160,310.5C 161.313,309.427 162.813,308.76 164.5,308.5C 215.637,321.185 266.637,334.185 317.5,347.5C 318.167,347.167 318.833,346.833 319.5,346.5C 313.405,337.911 305.405,331.744 295.5,328C 246.099,313.643 196.432,300.31 146.5,288C 169.061,275.554 191.728,263.387 214.5,251.5 Z"/></g>
<g><path style="opacity:1" fill="#152f3c" d="M 148.5,192.5 C 156.057,196.082 163.724,199.582 171.5,203C 212.84,218.123 254.007,233.623 295,249.5C 318.402,241.474 341.568,232.641 364.5,223C 370.608,221.442 376.608,219.608 382.5,217.5C 385.5,217.167 386.833,218.5 386.5,221.5C 382.89,222.703 379.223,223.703 375.5,224.5C 374.959,233.491 374.626,242.491 374.5,251.5C 373.136,253.22 372.136,255.22 371.5,257.5C 367.86,260.473 364.527,263.806 361.5,267.5C 354.778,272.034 347.778,276.201 340.5,280C 335.286,281.274 330.619,283.607 326.5,287C 316.466,290.547 306.133,292.713 295.5,293.5C 295.5,280.833 295.5,268.167 295.5,255.5C 286.751,252.961 278.085,250.128 269.5,247C 251.758,239.788 234.091,232.621 216.5,225.5C 193.45,216.704 170.45,207.704 147.5,198.5C 147.167,197.5 146.833,196.5 146.5,195.5C 146.64,193.97 147.307,192.97 148.5,192.5 Z"/></g>
<g><path style="opacity:1" fill="#e66a38" d="M 385.5,211.5 C 388.079,211.394 390.412,212.061 392.5,213.5C 392.5,215.167 392.5,216.833 392.5,218.5C 391.51,224.31 391.177,230.31 391.5,236.5C 392.5,236.5 393.5,236.5 394.5,236.5C 398.504,241.2 398.337,245.866 394,250.5C 393.211,252.712 393.378,254.712 394.5,256.5C 395.703,258.395 396.869,260.395 398,262.5C 398.581,274.155 400.748,285.488 404.5,296.5C 404.124,298.383 403.124,299.883 401.5,301C 396.601,304.225 391.268,305.225 385.5,304C 380.351,303.263 376.351,300.763 373.5,296.5C 374.667,294.833 375.833,293.167 377,291.5C 378.579,281.868 379.912,272.201 381,262.5C 382.915,259.765 384.082,256.765 384.5,253.5C 383.259,249.881 381.926,246.214 380.5,242.5C 381.001,239.333 382.667,236.999 385.5,235.5C 386.493,230.88 386.827,226.214 386.5,221.5C 387.604,220.003 388.604,218.336 389.5,216.5C 388.177,214.835 386.844,213.168 385.5,211.5 Z"/></g>
<g><path style="opacity:1" fill="#35576d" d="M 216.5,225.5 C 234.091,232.621 251.758,239.788 269.5,247C 278.085,250.128 286.751,252.961 295.5,255.5C 295.5,268.167 295.5,280.833 295.5,293.5C 295.38,294.586 294.713,295.253 293.5,295.5C 275.921,290.808 258.921,284.641 242.5,277C 236.892,273.724 231.558,270.057 226.5,266C 222.231,261.246 218.231,256.413 214.5,251.5C 216.425,243.101 217.092,234.434 216.5,225.5 Z"/></g>
<g><path style="opacity:1" fill="#f4f5f4" d="M 386.5,221.5 C 386.827,226.214 386.493,230.88 385.5,235.5C 382.667,236.999 381.001,239.333 380.5,242.5C 381.926,246.214 383.259,249.881 384.5,253.5C 380.96,253.247 377.627,252.581 374.5,251.5C 374.626,242.491 374.959,233.491 375.5,224.5C 379.223,223.703 382.89,222.703 386.5,221.5 Z"/></g>
<g><path style="opacity:1" fill="#efab7f" d="M 392.5,218.5 C 391.947,224.792 392.614,230.792 394.5,236.5C 393.5,236.5 392.5,236.5 391.5,236.5C 391.177,230.31 391.51,224.31 392.5,218.5 Z"/></g>
<g><path style="opacity:1" fill="#d0522d" d="M 313.5,183.5 C 338.013,191.886 362.013,201.22 385.5,211.5C 386.844,213.168 388.177,214.835 389.5,216.5C 388.604,218.336 387.604,220.003 386.5,221.5C 386.833,218.5 385.5,217.167 382.5,217.5C 361.583,209.247 340.583,201.081 319.5,193C 315.912,191.378 312.579,189.545 309.5,187.5C 311.167,186.5 312.5,185.167 313.5,183.5 Z"/></g>
<g><path style="opacity:1" fill="#19313f" d="M 442.5,192.5 C 443.693,192.97 444.36,193.97 444.5,195.5C 444.167,196.5 443.833,197.5 443.5,198.5C 426.618,205.57 409.618,212.236 392.5,218.5C 392.5,216.833 392.5,215.167 392.5,213.5C 409.238,206.493 425.905,199.493 442.5,192.5 Z"/></g>
<g><path style="opacity:1" fill="#35576d" d="M 442.5,192.5 C 425.905,199.493 409.238,206.493 392.5,213.5C 390.412,212.061 388.079,211.394 385.5,211.5C 362.013,201.22 338.013,191.886 313.5,183.5C 315.958,175.919 313.291,171.086 305.5,169C 302.833,168.333 300.167,168.333 297.5,169C 302.423,169.307 306.756,170.973 310.5,174C 312.333,179.002 310.666,182.335 305.5,184C 301.541,184.827 297.541,185.327 293.5,185.5C 290.546,185.709 287.879,185.042 285.5,183.5C 284.479,184.002 284.312,184.668 285,185.5C 291.569,190.653 298.735,191.653 306.5,188.5C 307.086,188.709 307.586,189.043 308,189.5C 308.278,188.584 308.778,187.918 309.5,187.5C 312.579,189.545 315.912,191.378 319.5,193C 340.583,201.081 361.583,209.247 382.5,217.5C 376.608,219.608 370.608,221.442 364.5,223C 341.568,232.641 318.402,241.474 295,249.5C 254.007,233.623 212.84,218.123 171.5,203C 163.724,199.582 156.057,196.082 148.5,192.5C 196.949,172.626 245.783,153.626 295,135.5C 344.629,153.682 393.796,172.682 442.5,192.5 Z"/></g>
<g><path style="opacity:1" fill="#17303f" d="M 313.5,183.5 C 312.5,185.167 311.167,186.5 309.5,187.5C 308.778,187.918 308.278,188.584 308,189.5C 307.586,189.043 307.086,188.709 306.5,188.5C 298.735,191.653 291.569,190.653 285,185.5C 284.312,184.668 284.479,184.002 285.5,183.5C 287.879,185.042 290.546,185.709 293.5,185.5C 297.541,185.327 301.541,184.827 305.5,184C 310.666,182.335 312.333,179.002 310.5,174C 306.756,170.973 302.423,169.307 297.5,169C 300.167,168.333 302.833,168.333 305.5,169C 313.291,171.086 315.958,175.919 313.5,183.5 Z"/></g>
<g><path style="opacity:0.576" fill="#566d81" d="M 575.5,408.5 C 577.024,423.803 577.691,439.303 577.5,455C 577.5,466.005 577.167,476.839 576.5,487.5C 577.14,466.336 576.473,445.336 574.5,424.5C 575.451,419.23 575.785,413.897 575.5,408.5 Z"/></g>
<g><path style="opacity:1" fill="#e75a24" d="M 103.5,491.5 C 112.506,491.334 121.506,491.5 130.5,492C 142.92,493.981 147.42,501.148 144,513.5C 142.911,517.186 140.745,520.019 137.5,522C 144.97,524.969 148.637,530.469 148.5,538.5C 148.451,550.045 142.785,556.878 131.5,559C 122.173,559.5 112.839,559.666 103.5,559.5C 103.5,536.833 103.5,514.167 103.5,491.5 Z"/></g>
<g><path style="opacity:1" fill="#e75a24" d="M 165.5,491.5 C 176.555,491.121 187.555,491.621 198.5,493C 203,494.833 206.167,498 208,502.5C 211.221,514.166 208.054,523.499 198.5,530.5C 204.167,539.833 209.833,549.167 215.5,558.5C 210.198,559.663 204.864,559.829 199.5,559C 195.126,551.085 190.626,543.252 186,535.5C 183.619,534.565 181.119,534.232 178.5,534.5C 178.5,542.833 178.5,551.167 178.5,559.5C 174.167,559.5 169.833,559.5 165.5,559.5C 165.5,536.833 165.5,514.167 165.5,491.5 Z"/></g>
<g><path style="opacity:1" fill="#e75c28" d="M 228.5,491.5 C 238.5,491.5 248.5,491.5 258.5,491.5C 258.5,495.5 258.5,499.5 258.5,503.5C 255.833,503.5 253.167,503.5 250.5,503.5C 250.5,518.167 250.5,532.833 250.5,547.5C 253.167,547.5 255.833,547.5 258.5,547.5C 258.5,551.5 258.5,555.5 258.5,559.5C 248.5,559.5 238.5,559.5 228.5,559.5C 228.5,555.5 228.5,551.5 228.5,547.5C 231.167,547.5 233.833,547.5 236.5,547.5C 236.5,532.833 236.5,518.167 236.5,503.5C 233.833,503.5 231.167,503.5 228.5,503.5C 228.5,499.5 228.5,495.5 228.5,491.5 Z"/></g>
<g><path style="opacity:1" fill="#e75a24" d="M 349.5,491.5 C 349.334,501.506 349.5,511.506 350,521.5C 350.717,520.956 351.217,520.289 351.5,519.5C 357.532,510.613 363.198,501.446 368.5,492C 373.833,491.333 379.167,491.333 384.5,492C 377.424,502.075 370.757,512.408 364.5,523C 371.241,535.148 378.241,547.148 385.5,559C 379.804,559.83 374.137,559.663 368.5,558.5C 363.585,549.668 358.418,541.001 353,532.5C 352,533.833 351,535.167 350,536.5C 349.5,544.159 349.334,551.826 349.5,559.5C 345.167,559.5 340.833,559.5 336.5,559.5C 336.5,536.833 336.5,514.167 336.5,491.5C 340.833,491.5 345.167,491.5 349.5,491.5 Z"/></g>
<g><path style="opacity:1" fill="#f3bbaf" d="M 349.5,491.5 C 350.167,500.833 350.833,510.167 351.5,519.5C 351.217,520.289 350.717,520.956 350,521.5C 349.5,511.506 349.334,501.506 349.5,491.5 Z"/></g>
<g><path style="opacity:1" fill="#e75a23" d="M 399.5,491.5 C 403.833,491.5 408.167,491.5 412.5,491.5C 412.5,509.833 412.5,528.167 412.5,546.5C 420.833,546.5 429.167,546.5 437.5,546.5C 437.5,550.833 437.5,555.167 437.5,559.5C 424.833,559.5 412.167,559.5 399.5,559.5C 399.5,536.833 399.5,514.167 399.5,491.5 Z"/></g>
<g><path style="opacity:1" fill="#fdf7f4" d="M 116.5,503.5 C 120.936,503.21 125.27,503.71 129.5,505C 132.521,509.877 131.854,514.21 127.5,518C 123.848,518.499 120.182,518.665 116.5,518.5C 116.5,513.5 116.5,508.5 116.5,503.5 Z"/></g>
<g><path style="opacity:1" fill="#fdf7f4" d="M 178.5,503.5 C 183.297,503.121 187.964,503.621 192.5,505C 196.678,510.605 196.345,515.938 191.5,521C 187.3,522.367 182.967,522.867 178.5,522.5C 178.5,516.167 178.5,509.833 178.5,503.5 Z"/></g>
<g><path style="opacity:1" fill="#e75b25" d="M 294.5,490.5 C 302.389,490.648 310.055,491.981 317.5,494.5C 317.828,499.875 317.495,505.208 316.5,510.5C 309.378,503.47 301.045,501.303 291.5,504C 288.064,507.06 287.731,510.393 290.5,514C 297.091,516.531 303.758,518.864 310.5,521C 315.165,523.503 317.998,527.337 319,532.5C 320.257,553.237 310.424,562.404 289.5,560C 284.606,559.202 279.939,557.702 275.5,555.5C 274.167,549.833 274.167,544.167 275.5,538.5C 282.168,546.171 290.501,549.338 300.5,548C 305.143,545.928 306.643,542.428 305,537.5C 300.207,534.68 295.04,532.846 289.5,532C 277.183,526.864 272.683,517.697 276,504.5C 279.762,496.562 285.928,491.895 294.5,490.5 Z"/></g>
<g><path style="opacity:1" fill="#e85c27" d="M 447.5,491.5 C 452.544,491.173 457.544,491.506 462.5,492.5C 466.333,500.833 470.167,509.167 474,517.5C 477.5,509.167 481,500.833 484.5,492.5C 489.5,491.167 494.5,491.167 499.5,492.5C 493.333,505.5 487.167,518.5 481,531.5C 480.5,540.827 480.334,550.161 480.5,559.5C 475.833,559.5 471.167,559.5 466.5,559.5C 466.666,550.161 466.5,540.827 466,531.5C 459.548,518.265 453.381,504.932 447.5,491.5 Z"/></g>
<g><path style="opacity:1" fill="#fdf8f6" d="M 116.5,530.5 C 121.93,530.161 127.264,530.661 132.5,532C 135.384,536.918 135.051,541.585 131.5,546C 126.628,547.388 121.628,547.888 116.5,547.5C 116.5,541.833 116.5,536.167 116.5,530.5 Z"/></g>
<g><path style="opacity:1" fill="#6a7f92" d="M 539.5,526.5 C 539.58,529.781 538.913,532.781 537.5,535.5C 537.42,532.219 538.087,529.219 539.5,526.5 Z"/></g>
<g><path style="opacity:0.486" fill="#798b9c" d="M 23.5,549.5 C 25.7687,555.231 27.4354,561.231 28.5,567.5C 25.9201,561.858 24.2534,555.858 23.5,549.5 Z"/></g>
<g><path style="opacity:0.561" fill="#6c8091" d="M 41.5,602.5 C 44.9552,607.746 47.6218,613.413 49.5,619.5C 46.0448,614.254 43.3782,608.587 41.5,602.5 Z"/></g>
<g><path style="opacity:1" fill="#93a2b4" d="M 423.5,701.5 C 421.819,703.008 419.819,704.008 417.5,704.5C 418.911,702.461 420.911,701.461 423.5,701.5 Z"/></g>
<g><path style="opacity:1" fill="#7f91a3" d="M 245.5,730.5 C 248.067,730.721 250.401,731.388 252.5,732.5C 249.772,732.829 247.438,732.163 245.5,730.5 Z"/></g>
<g><path style="opacity:0.424" fill="#7b8b9d" d="M 414.5,744.5 C 412.574,746.293 410.241,747.293 407.5,747.5C 409.426,745.707 411.759,744.707 414.5,744.5 Z"/></g>
<g><path style="opacity:0.298" fill="#8795a9" d="M 378.5,757.5 C 376.162,759.04 373.495,759.706 370.5,759.5C 372.905,758.232 375.572,757.565 378.5,757.5 Z"/></g>
<g><path style="opacity:0.553" fill="#708696" d="M 361.5,761.5 C 358.091,762.903 354.425,763.57 350.5,763.5C 353.909,762.097 357.575,761.43 361.5,761.5 Z"/></g>
</svg>
