<svg width="90" height="90" viewBox="0 0 90 90" fill="none" xmlns="http://www.w3.org/2000/svg">
<circle cx="45" cy="45" r="45" fill="#ff6600"/>
<path d="M48.4999 54.5909H33.1249C32.2188 54.5909 31.3497 54.2365 30.709 53.6057C30.0682 52.9749 29.7083 52.1194 29.7083 51.2273V36.0909C29.7083 35.1988 30.0682 34.3433 30.709 33.7125C31.3497 33.0817 32.2188 32.7273 33.1249 32.7273H34.8333C38.344 32.7273 39.0417 27.6818 41.6666 27.6818H48.4999C51.1248 27.6818 51.8225 32.7273 55.3333 32.7273H57.0416C57.9477 32.7273 58.8168 33.0817 59.4575 33.7125C60.0983 34.3433 60.4583 35.1988 60.4583 36.0909V42.8182M55.3333 54.5909H65.5833M60.4583 49.5455V59.6364" stroke="white" stroke-width="2" stroke-linecap="round" stroke-linejoin="round"/>
<path d="M39.1042 41.9773C39.1042 43.5384 39.7342 45.0357 40.8555 46.1396C41.9768 47.2435 43.4976 47.8636 45.0834 47.8636C46.6692 47.8636 48.19 47.2435 49.3113 46.1396C50.4326 45.0357 51.0626 43.5384 51.0626 41.9773C51.0626 40.4161 50.4326 38.9189 49.3113 37.815C48.19 36.7111 46.6692 36.0909 45.0834 36.0909C43.4976 36.0909 41.9768 36.7111 40.8555 37.815C39.7342 38.9189 39.1042 40.4161 39.1042 41.9773Z" stroke="white" stroke-width="2" stroke-linecap="round" stroke-linejoin="round"/>
<defs>
<linearGradient id="paint0_linear_29_347" x1="72.931" y1="9.44054" x2="27.4337" y2="79.2113" gradientUnits="userSpaceOnUse">
<stop stop-color="#6DAFF1"/>
<stop offset="1" stop-color="#3D95ED"/>
</linearGradient>
</defs>
</svg>
